<svg version="1.1" id="Layer_1" xmlns="http://www.w3.org/2000/svg" xmlns:xlink="http://www.w3.org/1999/xlink" x="0px" y="0px" viewBox="0 10 100 25" style="enable-background:new 0 0 100 45;" xml:space="preserve" fit="" height="100%" width="100%" preserveAspectRatio="xMidYMid meet" focusable="false">
<style type="text/css">
	.st0{fill:#FFFFFF;}
 </style>
<g>
	<path class="st0" d="M30.46,32.81v-1.57c-0.78,0.87-2,1.92-4.18,1.92c-2.53,0-4.53-1.57-4.53-4.27c0-3.31,3.05-4.53,6.1-4.79
		l1.13-0.09c1.13-0.09,1.57-0.7,1.57-1.48c0-0.96-0.87-1.65-2.26-1.65c-1.57,0-3.05,1.13-3.66,2l-1.74-2.09
		c1.13-1.39,3.05-2.44,5.57-2.44c3.22,0,5.14,1.65,5.14,4.53v10.1h-3.14V32.81z M30.46,26.01l-2.18,0.26
		c-1.83,0.26-3.48,0.87-3.48,2.44c0,1.13,0.96,1.92,2.18,1.92c1.48,0,2.7-0.96,3.48-1.92V26.01L30.46,26.01z"></path>
	<path class="st0" d="M39.6,32.81h-3.14v-14.2h3.14v1.57c1.13-1.05,2.79-1.92,4.62-1.92c1.65,0,4.01,0.96,4.01,4.44v10.1h-3.14
		v-9.32c0-1.39-0.61-2.61-2-2.61c-1.22,0-2.7,1.05-3.48,1.65V32.81z"></path>
	<path class="st0" d="M59.29,18.61h3.14v14.2H59.2v-1.57c-0.87,0.78-2.26,1.83-4.09,1.83c-1.83,0-4.35-0.96-4.35-4.53v-9.93h3.14
		v8.97c0,1.65,0.7,2.79,2.18,2.79c1.22,0,2.35-0.78,3.22-1.74L59.29,18.61L59.29,18.61z"></path>
	<path class="st0" d="M68.95,32.81h-3.14V14.08l3.14-3.14V32.81z"></path>
	<path class="st0" d="M74.09,12.16c1.05,0,2,0.87,2,2c0,1.13-0.96,2-2,2c-1.13,0-2-0.96-2-2S72.96,12.16,74.09,12.16z M75.75,32.81
		h-3.22v-14.2h3.22V32.81z"></path>
	<path class="st0" d="M85.68,21.22h-2.96v11.67h-3.14V21.22h-1.92v-2.61h1.92v-2.96c0-2.35,1.48-4.44,4.44-4.44
		c1.39,0,2.53,0.35,3.22,0.7l-0.96,2.44c-0.44-0.26-1.13-0.52-1.74-0.52c-0.96,0-1.83,0.7-1.83,2v2.79h3.75L85.68,21.22z"></path>
	<path class="st0" d="M89.42,26.54c0,2.26,1.65,3.92,3.66,3.92c1.48,0,3.05-0.96,3.66-2.18l2,1.83c-1.13,1.65-3.4,3.05-5.92,3.05
		c-4.09,0-6.62-3.05-6.62-7.49c0-4.27,2.7-7.49,6.71-7.49c3.75,0,6.44,2.44,6.27,8.27h-9.75V26.54z M95.78,24.18
		c0-1.74-1.13-3.4-3.05-3.4c-1.83,0-3.22,1.74-3.31,3.4H95.78z"></path>
	<path class="st0" d="M3.81,32.81H0.33V13.04h3.66l5.92,9.75l0,0l5.75-9.75h3.66v19.77h-3.48V18.87h-0.09L9.73,28.8l-5.92-9.93l0,0
		V32.81z"></path>
</g>
</svg>